# xmcd
#
# Track frame offsets: 
#        150
#        11862
#        24703
#        35374
#        48141
#        60410
#        69937
#        83406
#        92118
#        106368
#        118902
#        130413
#        141542
#        154002
#        165401
#        177589
#        189462
#        202648
#        214640
#        225406
#        236394
#        249069
#        259944
#        271305
#        283237
#        296810
#        307471
#        318976
#
# Disc length: 4406 seconds
#
# Revision: 1
# Processed by: cddbd v1.5.2PL0 Copyright (c) Steve Scherf et al.
# Submitted via: ExactAudioCopyFreeDBPlugin 1.0
#
DISCID=8e11341c
DTITLE=Various Artist - Groove and Grind:  Rare Soul, '63 - '73
DYEAR=2015
DGENRE=Soul
TTITLE0=The Tempos - (Countdown) Here I Come
TTITLE1=The C-Quents - It's You and Me
TTITLE2=The Exsaveyons - I Don't Love You No More
TTITLE3=The Sounds Four - A Memory Best Forgotten
TTITLE4=The Specials (Chicago vocal group) - You Stood Me Up
TTITLE5=The Dynamics - Bingo!
TTITLE6=The Vontastics - Peace of Mind
TTITLE7=The Holidays - Loves Creeping Up on Me
TTITLE8=The Mandells - There Will Be Tears, Part 1
TTITLE9=The Montclairs - Never Ending Love
TTITLE10=The Four Pennies - You're a Gas with Your Trash
TTITLE11=The New Young Hearts - The Young Hearts Get Lonely Too
TTITLE12=Down to Earth - Forgive Me If I Cry
TTITLE13=The Sweet Things - I'm in a World of Trouble
TTITLE14=The C.O.D.'s - Cry No More
TTITLE15=The Ascots - Miss Heartbreaker
TTITLE16=The Shades of Sensation - But Then You Left Me
TTITLE17=The Webs - Keep Your Love Strong
TTITLE18=The Flint Emeralds - Just Like a Baby (Mama's Rocking in a Cr
TTITLE18=adle)
TTITLE19=Pearlean Gray and The Passengers - I Don't Want to Cry
TTITLE20=Little Ben and The Cheers - Beggar of Love
TTITLE21=The Versatiles - You're Good Enough for Me
TTITLE22=The Vows - Say You'll Be Mine
TTITLE23=The Delacardos - She's the One I Love
TTITLE24=The People's Choice - Savin' My Lovin' for You
TTITLE25=The Profiles - Got to Be Your Lover
TTITLE26=The Pace Setters - Victim of Loneliness
TTITLE27=The Four Perfections - I'm Not Strong Enough
EXTD=
EXTT0=
EXTT1=
EXTT2=
EXTT3=
EXTT4=
EXTT5=
EXTT6=
EXTT7=
EXTT8=
EXTT9=
EXTT10=
EXTT11=
EXTT12=
EXTT13=
EXTT14=
EXTT15=
EXTT16=
EXTT17=
EXTT18=
EXTT19=
EXTT20=
EXTT21=
EXTT22=
EXTT23=
EXTT24=
EXTT25=
EXTT26=
EXTT27=
PLAYORDER=
